<!--
 * Copyright (c) 2021, WSO2 Inc. (http://www.wso2.org) All Rights Reserved.
 *
 * WSO2 Inc. licenses this file to you under the Apache License,
 * Version 2.0 (the "License"); you may not use this file except
 * in compliance with the License.
 * You may obtain a copy of the License at
 *
 *     http://www.apache.org/licenses/LICENSE-2.0
 *
 * Unless required by applicable law or agreed to in writing,
 * software distributed under the License is distributed on an
 * "AS IS" BASIS, WITHOUT WARRANTIES OR CONDITIONS OF ANY
 * KIND, either express or implied. See the License for the
 * specific language governing permissions and limitations
 * under the License.
-->

<svg xmlns="http://www.w3.org/2000/svg" width="110.34" height="95.58" viewBox="0 0 110.34 95.58">
  <g id="logo-2" transform="translate(-119.47 -151.62)">
    <path id="Path_2303" data-name="Path 2303" d="M198.29,151.62l10.15,17.57L197.2,188.65l22.46-.01,10.15,17.58H166.76Z" fill="#ff7300"/>
    <path id="Path_2304" data-name="Path 2304" d="M119.47,206.22l10.15-17.58h22.47l-11.24-19.45,10.14-17.57,31.54,54.6Z" fill="#ff7300"/>
    <path id="Path_2305" data-name="Path 2305" d="M185.87,247.18l-11.23-19.46-11.23,19.46H143.12l31.52-54.61,31.52,54.61Z"/>
    <path id="Path_2306" data-name="Path 2306" d="M213,242.74h-1.6v4.44h-.65v-4.44h-1.6v-.54H213Z" fill="#465867"/>
    <path id="Path_2307" data-name="Path 2307" d="M215.26,242.2l1.62,4.06,1.63-4.06h.85v5h-.66v-1.94l.07-2.09-1.64,4h-.5l-1.63-4,.06,2.08v1.94h-.65v-5Z" fill="#465867"/>
  </g>
</svg>
