<svg id="shield" xmlns="http://www.w3.org/2000/svg" width="60" viewBox="0 0 36.069 40.497">
  <path id="Path_26" data-name="Path 26" d="M35.164,6.56a7.7,7.7,0,0,1-3.617-2.038A7.7,7.7,0,0,1,29.509.905L29.289,0H6.781L6.56.905A7.7,7.7,0,0,1,4.522,4.522,7.7,7.7,0,0,1,.905,6.56L0,6.781v8.1A27.2,27.2,0,0,0,17.617,40.34l.418.158.418-.158A27.2,27.2,0,0,0,36.069,14.884v-8.1ZM33.7,14.884A24.827,24.827,0,0,1,18.035,37.958,24.828,24.828,0,0,1,2.373,14.884V8.6A10.084,10.084,0,0,0,6.2,6.2,10.078,10.078,0,0,0,8.6,2.373H27.471A10.079,10.079,0,0,0,29.87,6.2,10.083,10.083,0,0,0,33.7,8.6Zm0,0" transform="translate(0 0)" fill="#464646"/>
  <path id="Path_27" data-name="Path 27" d="M81.487,60.585,81.143,60H65.435l-.343.589a12.5,12.5,0,0,1-4.5,4.5L60,65.431v4.7A22.458,22.458,0,0,0,72.779,90.4l.51.243.51-.243A22.459,22.459,0,0,0,86.578,70.134v-4.7l-.589-.343a12.5,12.5,0,0,1-4.5-4.5Zm2.719,9.549A20.086,20.086,0,0,1,73.289,88a20.087,20.087,0,0,1-10.916-17.87V66.776a14.875,14.875,0,0,0,4.407-4.407H79.8a14.871,14.871,0,0,0,4.407,4.407Zm0,0" transform="translate(-55.254 -55.251)" fill="#464646"/>
  <path id="Path_28" data-name="Path 28" d="M172.934,146.992a4.731,4.731,0,0,0-1.186,9.31v4.281h2.373V156.3a4.731,4.731,0,0,0-1.186-9.31Zm0,7.088a2.358,2.358,0,1,1,2.358-2.358A2.36,2.36,0,0,1,172.934,154.081Zm0,0" transform="translate(-154.899 -135.366)" fill="#464646"/>
</svg>
